<svg xmlns="http://www.w3.org/2000/svg" width="256" height="256" viewBox="0 0 100 100"><rect width="100" height="100" rx="0" fill="#3015f0"></rect><path d="M14.55 59.22L20.88 52.03L38.07 78.44L46.86 78.44L25.64 46.45L45.53 21.56L36.74 21.56L20.06 42.46L14.55 49.34L14.55 21.56L7.17 21.56L7.17 78.44L14.55 78.44L14.55 59.22ZM54.51 21.56L54.51 78.44L67.68 78.44Q71.78 78.40 75.31 77.46Q78.85 76.52 81.66 74.77L81.66 74.77Q84.32 73.09 86.46 70.70Q88.61 68.32 90.02 65.39L90.02 65.39Q91.39 62.58 92.11 59.22Q92.83 55.86 92.83 52.11L92.83 52.11L92.83 47.93Q92.79 44.02 92.03 40.59Q91.27 37.15 89.82 34.26L89.82 34.26Q88.22 30.86 85.55 28.26Q82.87 25.66 79.39 24.06L79.39 24.06Q76.89 22.89 73.95 22.25Q71.00 21.60 67.68 21.56L67.68 21.56L54.51 21.56ZM61.86 72.54L61.86 27.50L67.68 27.50Q70.37 27.54 72.64 28.11Q74.90 28.67 76.74 29.69L76.74 29.69Q79.32 31.05 81.09 33.26Q82.87 35.47 83.93 38.20L83.93 38.20Q84.75 40.31 85.16 42.75Q85.57 45.20 85.61 47.85L85.61 47.85L85.61 52.11Q85.57 54.73 85.18 57.13Q84.79 59.53 84.00 61.60L84.00 61.60Q83.11 64.14 81.56 66.19Q80.02 68.24 77.91 69.65L77.91 69.65Q75.92 71.02 73.36 71.76Q70.80 72.50 67.68 72.54L67.68 72.54L61.86 72.54Z" fill="#fff"></path></svg>